<svg width="512" height="256" viewBox="0 0 512 256" fill="none" xmlns="http://www.w3.org/2000/svg">
<path d="M138.697 88.6444C138.697 95.071 133.52 100.281 127.134 100.281C120.748 100.281 115.571 95.071 115.571 88.6444C115.571 82.2178 120.748 77.0081 127.134 77.0081C133.52 77.0081 138.697 82.2178 138.697 88.6444Z" fill="#0057B7"/>
<path fill-rule="evenodd" clip-rule="evenodd" d="M110.815 115.152C112.235 112.421 113.398 111.128 114.494 110.258C115.172 109.719 115.884 109.285 116.81 108.792C113.728 113.123 111.794 119.364 111.794 126.302C111.794 128.216 111.941 130.077 112.219 131.86C112.183 133.282 111.977 149.601 111.949 151.641C111.935 153.587 111.924 155.278 111.917 156.483L111.906 158.408L111.905 158.63L112.779 173.265L112.851 173.261C112.846 173.346 112.842 173.433 112.842 173.521C112.842 175.065 113.778 176.296 114.948 177.08C116.128 177.869 117.68 178.313 119.325 178.313C120.971 178.313 122.522 177.869 123.702 177.08C124.873 176.296 125.808 175.065 125.808 173.521C125.808 173.163 125.757 172.821 125.665 172.498L126.431 172.453L125.583 158.261L125.639 149.869C126.132 149.943 127.084 150 127.59 150C127.872 150 128.624 149.898 129.344 149.738L129.551 158.37L128.95 172.574L129.285 172.588C129.209 172.884 129.167 173.196 129.167 173.521C129.167 175.065 130.102 176.296 131.273 177.08C132.453 177.869 134.004 178.313 135.65 178.313C137.295 178.313 138.847 177.869 140.026 177.08C141.197 176.296 142.132 175.065 142.132 173.521C142.132 173.387 142.125 173.255 142.111 173.125L142.614 173.146L143.234 158.498C143.234 158.498 143.117 153.457 143.069 151.512C143.069 151.512 142.589 134.705 142.529 133.283C142.484 132.23 142.424 130.813 142.3 129.98C142.421 128.781 142.484 127.553 142.484 126.302C142.484 119.735 140.751 113.793 137.953 109.503C137.599 108.961 137.229 108.446 136.842 107.958C136.792 107.895 136.741 107.832 136.69 107.769C136.796 107.829 136.899 107.886 136.999 107.943L137.002 107.944C138.518 108.797 139.415 109.334 140.26 110.094C141.195 110.932 142.239 112.23 143.529 115.045C143.76 115.548 143.891 116.013 143.942 116.428C144.24 118.849 144.003 121.801 143.575 127.5C144.074 127.5 144.204 127.3 144.946 127.395C144.859 127.697 144.813 128.015 144.813 128.345C144.813 130.235 146.336 131.767 148.214 131.767C150.092 131.767 151.615 130.235 151.615 128.345C151.615 128.192 151.605 128.042 151.586 127.895C152.066 128 152.566 128.5 153.065 128.5C153.481 122.967 153.877 118.779 153.444 115.258C152.921 111 149.069 105.129 146.652 102.959C144.838 101.331 142.821 100.211 141.037 99.221C140.805 99.0919 140.576 98.965 140.352 98.8394L140.013 99.4452L128.09 101C127.378 101.072 126.802 101.088 126.092 101L115.89 99.5512L115.481 98.7304C113.485 99.7161 110.523 101.179 108.545 102.749C107.456 103.614 100.617 109.5 100.617 119C100.617 121.89 100.515 123.634 101.117 128.345C101.616 128.5 102.043 127.992 102.677 127.929C102.661 128.065 102.652 128.204 102.652 128.345C102.652 130.235 104.175 131.767 106.053 131.767C107.932 131.767 109.454 130.235 109.454 128.345C109.454 128.005 109.405 127.677 109.314 127.367C109.762 127.246 110.108 127.5 110.607 127.5C110.133 121.883 109.608 117 110.815 115.152Z" fill="#0057B7"/>
<path d="M392.014 87.344C395.374 85.9432 398.976 85.2219 402.613 85.2219C406.251 85.2219 409.852 85.9432 413.212 87.344C416.571 88.7449 419.623 90.7978 422.192 93.3847C424.762 95.9701 426.8 99.039 428.191 102.416C429.581 105.793 430.297 109.412 430.297 113.066C430.297 116.721 429.581 120.34 428.191 123.717C426.8 127.094 424.762 130.163 422.192 132.748L382.106 173.088C381.593 173.604 380.895 173.895 380.167 173.895C379.439 173.895 378.741 173.604 378.228 173.088L338.142 132.748C332.953 127.526 330.04 120.446 330.04 113.066C330.04 105.687 332.953 98.6067 338.142 93.3842C343.332 88.1613 350.375 85.2244 357.721 85.2244C365.067 85.2244 372.11 88.1613 377.3 93.3842L380.167 96.2697L383.034 93.3847C385.603 90.798 388.655 88.7448 392.014 87.344Z" fill="#FED600" stroke="#FED600" stroke-linecap="round" stroke-linejoin="round"/>
<path fill-rule="evenodd" clip-rule="evenodd" d="M329.625 16.522C348.882 6.74415 370.343 2.13161 391.913 3.13471C413.482 4.1378 434.424 10.7223 452.692 22.2453C470.961 33.7683 485.932 49.836 496.145 68.8799C506.357 87.9238 511.462 109.293 510.961 130.901C510.46 152.51 504.369 173.619 493.285 192.168C482.2 210.717 466.5 226.072 447.717 236.733C428.934 247.395 407.71 253 386.117 253V245C406.328 245 426.194 239.754 443.775 229.775C461.356 219.795 476.051 205.423 486.426 188.061C496.801 170.699 502.502 150.941 502.971 130.716C503.44 110.49 498.662 90.4887 489.103 72.6636C479.544 54.8385 465.531 39.7991 448.431 29.0136C431.332 18.228 411.731 12.065 391.542 11.1261C371.352 10.1872 351.265 14.5045 333.24 23.6566C315.216 32.8087 299.87 46.4828 288.701 63.3439L282.04 58.923C293.972 40.909 310.368 26.2999 329.625 16.522ZM384.748 17.0085C404.457 16.7649 423.875 21.7842 441.002 31.5496C458.129 41.3149 472.347 55.4734 482.19 72.567C492.034 89.6606 497.147 109.072 497.005 128.801C496.863 148.531 491.47 167.866 481.381 184.815C471.292 201.765 456.872 215.717 439.606 225.233C422.339 234.75 402.851 239.488 383.147 238.96C363.444 238.432 344.237 232.656 327.505 222.227C310.702 211.755 289.011 191.246 272.108 155.2C268.491 147.486 265.391 139.158 262.168 130.497C260.235 125.304 258.257 119.991 256.097 114.619C250.24 100.056 242.758 84.2268 230.5 66.8031L237.034 62.1969C249.751 80.2732 257.504 96.6943 263.511 111.631C265.859 117.471 267.9 122.965 269.849 128.208C272.961 136.585 275.835 144.321 279.343 151.8C295.609 186.488 316.272 205.803 331.729 215.436C347.255 225.113 365.078 230.473 383.361 230.963C401.645 231.453 419.729 227.057 435.751 218.226C451.772 209.395 465.153 196.449 474.515 180.721C483.877 164.993 488.881 147.051 489.013 128.743C489.145 110.436 484.4 92.4238 475.266 76.5622C466.132 60.7005 452.939 47.5625 437.047 38.5009C421.154 29.4394 403.135 24.7818 384.847 25.0078C366.558 25.2339 348.66 30.3353 332.996 39.7868L328.87 32.9353C345.751 22.7497 365.039 17.252 384.748 17.0085ZM374.317 31.6652C387.364 30.1239 400.587 31.2677 413.176 35.0266C425.764 38.7855 437.453 45.0801 447.523 53.5241C457.594 61.968 465.834 72.383 471.738 84.1298C477.642 95.8767 481.085 108.707 481.857 121.834C482.628 134.961 480.711 148.108 476.223 160.466C471.735 172.825 464.771 184.135 455.759 193.702C446.747 203.27 435.876 210.892 423.814 216.102C411.827 221.28 398.783 224.368 385.507 223.998C363.815 223.395 343.439 217.423 325.278 202.637C307.184 187.905 291.609 164.685 278.967 130.149L286.471 127.396C298.804 161.088 313.698 182.897 330.321 196.43C346.876 209.909 365.462 215.437 385.729 216.001C397.627 216.333 409.512 213.567 420.648 208.757C431.71 203.979 441.679 196.988 449.944 188.214C458.209 179.44 464.596 169.067 468.712 157.733C472.827 146.399 474.586 134.343 473.878 122.304C473.171 110.265 470.013 98.4983 464.598 87.7253C459.184 76.9523 451.627 67.4007 442.391 59.6568C433.155 51.9129 422.436 46.1401 410.891 42.6928C399.346 39.2455 387.219 38.1965 375.254 39.6101L374.317 31.6652Z" fill="#FED600"/>
<path fill-rule="evenodd" clip-rule="evenodd" d="M183.37 239.478C164.113 249.256 142.652 253.868 121.082 252.865C99.5126 251.862 78.5713 245.278 60.3028 233.755C42.0344 222.232 27.063 206.164 16.8504 187.12C6.63774 168.076 1.53283 146.707 2.03401 125.099C2.5352 103.49 8.6254 82.3813 19.71 63.8324C30.7945 45.2834 46.4947 29.9285 65.2777 19.2665C84.0608 8.6046 105.285 3.00006 126.878 3.00006L126.878 11.0001C106.667 11.0001 86.8011 16.2459 69.2201 26.2255C51.6392 36.205 36.9439 50.5773 26.5687 67.9391C16.1936 85.3009 10.4931 105.059 10.024 125.284C9.55492 145.51 14.3331 165.511 23.8921 183.336C33.4511 201.162 47.4643 216.201 64.5636 226.986C81.6629 237.772 101.264 243.935 121.453 244.874C141.642 245.813 161.73 241.495 179.755 232.343C197.779 223.191 213.125 209.517 224.294 192.656L230.955 197.077C219.022 215.091 202.627 229.7 183.37 239.478ZM128.247 238.992C108.538 239.235 89.1197 234.216 71.9926 224.45C54.8655 214.685 40.6482 200.527 30.8047 183.433C20.9613 166.339 15.8474 146.928 15.9897 127.199C16.1319 107.469 21.5252 88.1342 31.6142 71.1846C41.7032 54.2349 56.1231 40.2834 73.3893 30.7666C90.6555 21.2497 110.144 16.5115 129.847 17.0399C149.551 17.5682 168.758 23.344 185.49 33.7726C202.293 44.2447 223.984 64.7539 240.887 100.8C244.504 108.514 247.604 116.842 250.827 125.503C252.76 130.696 254.738 136.009 256.898 141.381C262.755 155.944 270.237 171.773 282.495 189.197L275.961 193.803C263.244 175.727 255.491 159.306 249.484 144.369C247.136 138.529 245.094 133.035 243.146 127.792C240.034 119.415 237.159 111.679 233.652 104.2C217.386 69.5116 196.723 50.197 181.266 40.5637C165.74 30.8868 147.917 25.5273 129.633 25.037C111.35 24.5467 93.2661 28.9434 77.2443 37.7744C61.2226 46.6053 47.8419 59.5514 38.4801 75.2794C29.1182 91.0074 24.1136 108.949 23.9816 127.257C23.8496 145.564 28.5949 163.576 37.7289 179.438C46.863 195.3 60.0556 208.438 75.9483 217.499C91.841 226.561 109.859 231.218 128.148 230.992C146.437 230.766 164.335 225.665 179.999 216.213L184.125 223.065C167.244 233.25 147.956 238.748 128.247 238.992ZM138.678 224.335C125.631 225.876 112.408 224.732 99.8194 220.973C87.2307 217.214 75.5424 210.92 65.4718 202.476C55.4013 194.032 47.161 183.617 41.2569 171.87C35.3528 160.123 31.9094 147.293 31.1382 134.166C30.3669 121.039 32.284 107.892 36.7718 95.5336C41.2597 83.175 48.2235 71.8649 57.2358 62.2976C66.2481 52.7303 77.1188 45.1077 89.1805 39.8976C101.168 34.7197 114.211 31.632 127.488 32.0016C149.18 32.6055 169.556 38.5774 187.717 53.3634C205.811 68.0947 221.386 91.3152 234.028 125.851L226.524 128.604C214.191 94.9125 199.296 73.1033 182.674 59.5697C166.119 46.0908 147.533 40.5627 127.266 39.9985C115.368 39.6673 103.483 42.4327 92.347 47.2429C81.2853 52.021 71.3158 59.0117 63.0506 67.7859C54.7854 76.5601 48.3989 86.9325 44.2832 98.2666C40.1674 109.601 38.4092 121.657 39.1165 133.696C39.8239 145.735 42.9818 157.502 48.3964 168.275C53.8111 179.048 61.3682 188.599 70.6039 196.343C79.8396 204.087 90.5589 209.86 102.104 213.307C113.649 216.754 125.776 217.804 137.741 216.39L138.678 224.335Z" fill="#0057B7"/>
</svg>
